<?xml version="1.0" encoding="utf-8"?>
<!DOCTYPE svg PUBLIC "-//W3C//DTD SVG 1.1//EN" "http://www.w3.org/Graphics/SVG/1.1/DTD/svg11.dtd" [
        <!ENTITY ns_extend "http://ns.adobe.com/Extensibility/1.0/">
        <!ENTITY ns_ai "http://ns.adobe.com/AdobeIllustrator/10.0/">
        <!ENTITY ns_graphs "http://ns.adobe.com/Graphs/1.0/">
        <!ENTITY ns_vars "http://ns.adobe.com/Variables/1.0/">
        <!ENTITY ns_imrep "http://ns.adobe.com/ImageReplacement/1.0/">
        <!ENTITY ns_sfw "http://ns.adobe.com/SaveForWeb/1.0/">
        <!ENTITY ns_custom "http://ns.adobe.com/GenericCustomNamespace/1.0/">
        <!ENTITY ns_adobe_xpath "http://ns.adobe.com/XPath/1.0/">
        ]>
<svg version="1.1" id="Layer_1" xmlns:i="&ns_ai;"
     xmlns="http://www.w3.org/2000/svg" x="0px" y="0px" viewBox="0 0 750 750"
     style="enable-background:new 0 0 750 750;" xml:space="preserve">
<style type="text/css">
	.st0{fill:#93CADF;}
	.st1{fill:#DC2227;}
</style>
    <switch>
	<g i:extraneous="self">
		<path d="M614,304.5c-5.3,4.1-6.9,8.1-6.5,14.5c2.5,39,3.1,78.1,2.4,117.1c-0.6,31.3-4.1,62.4-8.2,93.4c-3.6,27.4-7.3,54.7-11.8,82
			c-2.3,14.3-4.8,28.5-7.4,42.7c-9.3,50-80.2,45.5-116.2,34.8c-24.8-7.4-36.2-27.6-39.7-52c-1.7-12-1.3-24.1-1.7-36.2
			c-0.6-18.7-6.7-17.1-24.2-22.1c-5.2-1.5-5.2-1.6-5.7,3.6c-1.7,18.5,0.6,41.5-1.2,62.8c-1.6,19-6.4,36.7-20.1,48.7
			c-43.1,38.1-114.7,31.9-145.5-18.8c-6.1-10-8.4-21.4-10.6-32.7c-3.9-19.5-6-39.3-7.7-59.1c-0.3-3.5-1.4-4.3-4.7-4.3
			c-15,0.1-29.7-2.1-43.9-7c-29.1-10.1-47.4-29.6-53.6-60.4c-6.7-33.4-7.5-67-7.1-100.9c0.3-30.6,2.3-61.1,5.6-91.5
			c2.3-20.5,5.2-40.8,10.2-60.9c6.7-26.9,24.6-41.5,50.7-47.3c11.9-2.6,31.6,2.8,41.5-1.1c9.6-3.9,8-25.5,9.5-33.8
			c2.5-14.1,5.7-28.1,9.9-41.9c6.8-22.1,16.1-43,31.7-60.4c18.7-20.9,42.9-32,70.1-36.6c36.4-6.2,73.2-7.2,109.8-4.1
			c34.1,2.9,66.3,15.7,92.2,38.3c20.5,17.9,32.6,42.8,50.7,62.8c19.3,21.2,42.7,32.4,56.2,59.5C659.3,234.5,650.1,276.3,614,304.5z"
        />
        <path class="st0" d="M597,267.1c-13.5,13.6-30.2,21.9-47.9,28.3c-25.9,9.3-52.8,13.7-87.3,13.7c-14.7-0.1-35.9-2.6-56-11.4
			c-11.2-4.9-22-11.1-27.3-22.4c-11.6-24.7-16-50.6-7.5-77.4c0.8-2.6,2-5.1,3.3-7.6c3.6-7.3,8.6-12.4,16.8-15.4
			c30.8-11.1,62.1-19.5,95.1-20.1c31-0.6,60.6,4.8,86.9,22.2c17,11.2,30,25.6,35.5,45.7C613.2,239.6,609.5,254.6,597,267.1z"/>
        <path class="st1" d="M569.5,466.5c-2.2,30.5-6.7,60.7-10.9,91c-3.9,28.2-8.5,56.3-13.3,84.4c-1,5.6-3.4,8.8-8.7,10.6
			c-13.2,4.5-26.7,4.4-40.3,2.8c-7.4-0.9-14.7-2.4-21.7-5c-4.2-1.5-6.7-4-7.9-8.5c-3.9-15.6-4-31.3-1.9-47c1-7.4,1.2-7.4,8.6-8.8
			c10.9-2.1,21.2-5.3,29.8-12.8c6.6-5.7,10.7-12.9,13.1-22.1c-27.5,9.9-53.8,4.3-79.9-2.8c-13.1-3.5-26-7.8-39-11.6
			c-6.9-2-14-3.3-21.1-0.7c-9.9,3.5-14.2,11.5-16.5,21.1c-3.4,14-4.4,28.3-5.2,42.6c-1.1,18.7-1.7,37.4-1.8,56.1
			c0,1.9-0.7,3.3-1.9,4.7c-29.1,30.9-66.7,21.8-87.8-4c-5.6-6.8-6.2-15.7-7.7-24c-5.6-31.6-8-63.5-9.9-95.5
			c-3.2-54.2-4.1-108.5-3.2-162.8c0.6-41,2.2-81.9,5.8-122.7c2.5-28.5,5.4-57,11.6-85.1c3.3-14.7,7.7-29,13.8-42.8
			c12.7-28.7,34.7-44.6,65.5-49.2c32-4.8,64.2-5.1,96.3-3.1c34,2.1,62.5,17.2,85,43c0.9,1.1,2.2,1.9,2.4,3.9
			c-6.5-0.6-13-1.4-19.5-1.8c-31.3-1.7-61.8,3-91.8,11.3c-13.5,3.7-26.6,8.7-39.8,13.4c-9.7,3.4-16.8,9.8-22.8,17.7
			c-12.9,16.9-19.2,36.2-20.5,57.3c-1.4,23,2.7,45.2,10.7,66.6c9.9,26.5,30.3,42.3,55.6,52.7c18.6,7.6,38.1,11.1,58,12.3
			c39,2.3,76.9-3.2,113.6-16.8c2.7-1,3.5-0.6,3.6,2.4C571.2,377.5,572.7,422,569.5,466.5z M206.4,247.6c-12.4-0.8-24.9-1.6-36.9,2.5
			c-7.7,2.6-12.8,7.7-14.9,15.8c-5.5,21.4-8.3,43.3-10.5,65.2c-2.9,29.1-4.7,58.3-4.6,87.6c0,4,0,7.9,0,11.9
			c0.2,23.7,1.3,47.4,6.2,70.6c2,9.6,4.4,19,13.2,25.3c13.7,9.8,29.3,12.5,45.6,13.2c3.1,0.1,2.1-2,2.1-3.6
			c-2.5-47.5-3.4-95-3.1-142.6c0.2-24.6,0.7-49.1,1.6-73.7c0.9-22.8,2.3-45.6,4-68.3C209.2,249.3,209,247.8,206.4,247.6z"/>
	</g>
</switch>
</svg>
